<?xml version="1.0" encoding="UTF-8" standalone="no"?>
<svg
   width="25.794"
   height="25.725"
   viewBox="0 0 25.794 25.725"
   version="1.1"
   id="svg892"
   sodipodi:docname="Chip0.svg"
   inkscape:version="1.4 (86a8ad7, 2024-10-11)"
   xmlns:inkscape="http://www.inkscape.org/namespaces/inkscape"
   xmlns:sodipodi="http://sodipodi.sourceforge.net/DTD/sodipodi-0.dtd"
   xmlns="http://www.w3.org/2000/svg"
   xmlns:svg="http://www.w3.org/2000/svg">
  <sodipodi:namedview
     id="namedview894"
     pagecolor="#ffffff"
     bordercolor="#999999"
     borderopacity="1"
     inkscape:showpageshadow="0"
     inkscape:pageopacity="0"
     inkscape:pagecheckerboard="0"
     inkscape:deskcolor="#d1d1d1"
     showgrid="false"
     inkscape:zoom="15.860058"
     inkscape:cx="2.7112133"
     inkscape:cy="16.424908"
     inkscape:window-width="1920"
     inkscape:window-height="1009"
     inkscape:window-x="-8"
     inkscape:window-y="-8"
     inkscape:window-maximized="1"
     inkscape:current-layer="Сгруппировать_3443" />
  <defs
     id="defs869">
    <linearGradient
       id="linear-gradient"
       x1="8.3787888"
       y1="16.756202"
       x2="8.3787888"
       gradientUnits="userSpaceOnUse"
       gradientTransform="scale(1.028918,0.97189476)"
       y2="-0.00029464231">
      <stop
         offset="0"
         stop-color="#00ff60"
         id="stop832"
         style="stop-color:#ff5900;stop-opacity:1;" />
      <stop
         offset="1"
         stop-color="#4fffbd"
         id="stop834"
         style="stop-color:#9a5f00;stop-opacity:1;" />
    </linearGradient>
    <radialGradient
       id="radial-gradient"
       cx="5.982567"
       cy="5.982567"
       r="9.8592705"
       gradientUnits="userSpaceOnUse"
       gradientTransform="scale(1.4404352,0.69423464)"
       fx="5.982567"
       fy="5.982567">
      <stop
         offset="0.63700002"
         stop-color="#fff"
         id="stop837"
         style="stop-color:#e73101;stop-opacity:1;" />
      <stop
         offset="0.697"
         stop-color="#fbfbfb"
         id="stop839" />
      <stop
         offset="0.743"
         stop-color="#f2f2f2"
         id="stop841" />
      <stop
         offset="0.784"
         stop-color="#e1e1e1"
         id="stop843" />
      <stop
         offset="0.822"
         stop-color="#cacaca"
         id="stop845" />
      <stop
         offset="0.859"
         stop-color="#acacac"
         id="stop847" />
      <stop
         offset="0.894"
         stop-color="#888"
         id="stop849" />
      <stop
         offset="0.928"
         stop-color="#5c5c5c"
         id="stop851" />
      <stop
         offset="0.96"
         stop-color="#2b2b2b"
         id="stop853" />
      <stop
         offset="0.985"
         id="stop855" />
    </radialGradient>
    <filter
       id="Объединение_2"
       x="0"
       y="0"
       width="25.794"
       height="25.725"
       filterUnits="userSpaceOnUse">
      <feOffset
         dx="3"
         dy="3"
         input="SourceAlpha"
         id="feOffset858" />
      <feGaussianBlur
         stdDeviation="3"
         result="blur"
         id="feGaussianBlur860" />
      <feFlood
         flood-opacity="0.561"
         id="feFlood862" />
      <feComposite
         operator="in"
         in2="blur"
         id="feComposite864"
         result="result1" />
      <feComposite
         in="SourceGraphic"
         in2="result1"
         id="feComposite866" />
    </filter>
    <inkscape:path-effect
       effect="bspline"
       id="path-effect7"
       is_visible="true"
       lpeversion="1.3"
       weight="33.333333"
       steps="2"
       helper_size="0"
       apply_no_weight="true"
       apply_with_weight="true"
       only_selected="false"
       uniform="false" />
    <inkscape:path-effect
       effect="bspline"
       id="path-effect3"
       is_visible="true"
       lpeversion="1.3"
       weight="33.333333"
       steps="2"
       helper_size="0"
       apply_no_weight="true"
       apply_with_weight="true"
       only_selected="false"
       uniform="false" />
    <inkscape:path-effect
       effect="bspline"
       id="path-effect4"
       is_visible="true"
       lpeversion="1.3"
       weight="33.333333"
       steps="2"
       helper_size="0"
       apply_no_weight="true"
       apply_with_weight="true"
       only_selected="false"
       uniform="false" />
    <inkscape:path-effect
       effect="bspline"
       id="path-effect5"
       is_visible="true"
       lpeversion="1.3"
       weight="33.333333"
       steps="2"
       helper_size="0"
       apply_no_weight="true"
       apply_with_weight="true"
       only_selected="false"
       uniform="false" />
    <inkscape:path-effect
       effect="bspline"
       id="path-effect6"
       is_visible="true"
       lpeversion="1.3"
       weight="33.333333"
       steps="2"
       helper_size="0"
       apply_no_weight="true"
       apply_with_weight="true"
       only_selected="false"
       uniform="false" />
    <inkscape:path-effect
       effect="bspline"
       id="path-effect8"
       is_visible="true"
       lpeversion="1.3"
       weight="33.333333"
       steps="2"
       helper_size="0"
       apply_no_weight="true"
       apply_with_weight="true"
       only_selected="false"
       uniform="false" />
    <inkscape:path-effect
       effect="bspline"
       id="path-effect266"
       is_visible="true"
       lpeversion="1.3"
       weight="33.333333"
       steps="2"
       helper_size="0"
       apply_no_weight="true"
       apply_with_weight="true"
       only_selected="false"
       uniform="false" />
    <inkscape:path-effect
       effect="bspline"
       id="path-effect267"
       is_visible="true"
       lpeversion="1.3"
       weight="33.333333"
       steps="2"
       helper_size="0"
       apply_no_weight="true"
       apply_with_weight="true"
       only_selected="false"
       uniform="false" />
    <inkscape:path-effect
       effect="bspline"
       id="path-effect268"
       is_visible="true"
       lpeversion="1.3"
       weight="33.333333"
       steps="2"
       helper_size="0"
       apply_no_weight="true"
       apply_with_weight="true"
       only_selected="false"
       uniform="false" />
    <inkscape:path-effect
       effect="bspline"
       id="path-effect269"
       is_visible="true"
       lpeversion="1.3"
       weight="33.333333"
       steps="2"
       helper_size="0"
       apply_no_weight="true"
       apply_with_weight="true"
       only_selected="false"
       uniform="false" />
    <inkscape:path-effect
       effect="bspline"
       id="path-effect270"
       is_visible="true"
       lpeversion="1.3"
       weight="33.333333"
       steps="2"
       helper_size="0"
       apply_no_weight="true"
       apply_with_weight="true"
       only_selected="false"
       uniform="false" />
    <inkscape:path-effect
       effect="bspline"
       id="path-effect271"
       is_visible="true"
       lpeversion="1.3"
       weight="33.333333"
       steps="2"
       helper_size="0"
       apply_no_weight="true"
       apply_with_weight="true"
       only_selected="false"
       uniform="false" />
    <inkscape:path-effect
       effect="bspline"
       id="path-effect272"
       is_visible="true"
       lpeversion="1.3"
       weight="33.333333"
       steps="2"
       helper_size="0"
       apply_no_weight="true"
       apply_with_weight="true"
       only_selected="false"
       uniform="false" />
    <inkscape:path-effect
       effect="bspline"
       id="path-effect273"
       is_visible="true"
       lpeversion="1.3"
       weight="33.333333"
       steps="2"
       helper_size="0"
       apply_no_weight="true"
       apply_with_weight="true"
       only_selected="false"
       uniform="false" />
    <inkscape:path-effect
       effect="bspline"
       id="path-effect274"
       is_visible="true"
       lpeversion="1.3"
       weight="33.333333"
       steps="2"
       helper_size="0"
       apply_no_weight="true"
       apply_with_weight="true"
       only_selected="false"
       uniform="false" />
    <inkscape:path-effect
       effect="bspline"
       id="path-effect275"
       is_visible="true"
       lpeversion="1.3"
       weight="33.333333"
       steps="2"
       helper_size="0"
       apply_no_weight="true"
       apply_with_weight="true"
       only_selected="false"
       uniform="false" />
    <inkscape:path-effect
       effect="bspline"
       id="path-effect276"
       is_visible="true"
       lpeversion="1.3"
       weight="33.333333"
       steps="2"
       helper_size="0"
       apply_no_weight="true"
       apply_with_weight="true"
       only_selected="false"
       uniform="false" />
    <inkscape:path-effect
       effect="bspline"
       id="path-effect277"
       is_visible="true"
       lpeversion="1.3"
       weight="33.333333"
       steps="2"
       helper_size="0"
       apply_no_weight="true"
       apply_with_weight="true"
       only_selected="false"
       uniform="false" />
    <inkscape:path-effect
       effect="bspline"
       id="path-effect278"
       is_visible="true"
       lpeversion="1.3"
       weight="33.333333"
       steps="2"
       helper_size="0"
       apply_no_weight="true"
       apply_with_weight="true"
       only_selected="false"
       uniform="false" />
    <inkscape:path-effect
       effect="bspline"
       id="path-effect279"
       is_visible="true"
       lpeversion="1.3"
       weight="33.333333"
       steps="2"
       helper_size="0"
       apply_no_weight="true"
       apply_with_weight="true"
       only_selected="false"
       uniform="false" />
    <inkscape:path-effect
       effect="bspline"
       id="path-effect281"
       is_visible="true"
       lpeversion="1.3"
       weight="33.333333"
       steps="2"
       helper_size="0"
       apply_no_weight="true"
       apply_with_weight="true"
       only_selected="false"
       uniform="false" />
    <inkscape:path-effect
       effect="bspline"
       id="path-effect282"
       is_visible="true"
       lpeversion="1.3"
       weight="33.333333"
       steps="2"
       helper_size="0"
       apply_no_weight="true"
       apply_with_weight="true"
       only_selected="false"
       uniform="false" />
    <inkscape:path-effect
       effect="bspline"
       id="path-effect283"
       is_visible="true"
       lpeversion="1.3"
       weight="33.333333"
       steps="2"
       helper_size="0"
       apply_no_weight="true"
       apply_with_weight="true"
       only_selected="false"
       uniform="false" />
    <inkscape:path-effect
       effect="bspline"
       id="path-effect284"
       is_visible="true"
       lpeversion="1.3"
       weight="33.333333"
       steps="2"
       helper_size="0"
       apply_no_weight="true"
       apply_with_weight="true"
       only_selected="false"
       uniform="false" />
    <inkscape:path-effect
       effect="bspline"
       id="path-effect285"
       is_visible="true"
       lpeversion="1.3"
       weight="33.333333"
       steps="2"
       helper_size="0"
       apply_no_weight="true"
       apply_with_weight="true"
       only_selected="false"
       uniform="false" />
    <inkscape:path-effect
       effect="bspline"
       id="path-effect286"
       is_visible="true"
       lpeversion="1.3"
       weight="33.333333"
       steps="2"
       helper_size="0"
       apply_no_weight="true"
       apply_with_weight="true"
       only_selected="false"
       uniform="false" />
    <inkscape:path-effect
       effect="bspline"
       id="path-effect180"
       is_visible="true"
       lpeversion="1.3"
       weight="33.333333"
       steps="2"
       helper_size="0"
       apply_no_weight="true"
       apply_with_weight="true"
       only_selected="false"
       uniform="false" />
    <inkscape:path-effect
       effect="bspline"
       id="path-effect181"
       is_visible="true"
       lpeversion="1.3"
       weight="33.333333"
       steps="2"
       helper_size="0"
       apply_no_weight="true"
       apply_with_weight="true"
       only_selected="false"
       uniform="false" />
    <inkscape:path-effect
       effect="bspline"
       id="path-effect182"
       is_visible="true"
       lpeversion="1.3"
       weight="33.333333"
       steps="2"
       helper_size="0"
       apply_no_weight="true"
       apply_with_weight="true"
       only_selected="false"
       uniform="false" />
    <inkscape:path-effect
       effect="bspline"
       id="path-effect183"
       is_visible="true"
       lpeversion="1.3"
       weight="33.333333"
       steps="2"
       helper_size="0"
       apply_no_weight="true"
       apply_with_weight="true"
       only_selected="false"
       uniform="false" />
    <inkscape:path-effect
       effect="bspline"
       id="path-effect189"
       is_visible="true"
       lpeversion="1.3"
       weight="33.333333"
       steps="2"
       helper_size="0"
       apply_no_weight="true"
       apply_with_weight="true"
       only_selected="false"
       uniform="false" />
    <inkscape:path-effect
       effect="bspline"
       id="path-effect191"
       is_visible="true"
       lpeversion="1.3"
       weight="33.333333"
       steps="2"
       helper_size="0"
       apply_no_weight="true"
       apply_with_weight="true"
       only_selected="false"
       uniform="false" />
    <inkscape:path-effect
       effect="bspline"
       id="path-effect193"
       is_visible="true"
       lpeversion="1.3"
       weight="33.333333"
       steps="2"
       helper_size="0"
       apply_no_weight="true"
       apply_with_weight="true"
       only_selected="false"
       uniform="false" />
    <inkscape:path-effect
       effect="bspline"
       id="path-effect194"
       is_visible="true"
       lpeversion="1.3"
       weight="33.333333"
       steps="2"
       helper_size="0"
       apply_no_weight="true"
       apply_with_weight="true"
       only_selected="false"
       uniform="false" />
    <inkscape:path-effect
       effect="bspline"
       id="path-effect195"
       is_visible="true"
       lpeversion="1.3"
       weight="33.333333"
       steps="2"
       helper_size="0"
       apply_no_weight="true"
       apply_with_weight="true"
       only_selected="false"
       uniform="false" />
    <inkscape:path-effect
       effect="bspline"
       id="path-effect196"
       is_visible="true"
       lpeversion="1.3"
       weight="33.333333"
       steps="2"
       helper_size="0"
       apply_no_weight="true"
       apply_with_weight="true"
       only_selected="false"
       uniform="false" />
    <inkscape:path-effect
       effect="bspline"
       id="path-effect197"
       is_visible="true"
       lpeversion="1.3"
       weight="33.333333"
       steps="2"
       helper_size="0"
       apply_no_weight="true"
       apply_with_weight="true"
       only_selected="false"
       uniform="false" />
    <inkscape:path-effect
       effect="bspline"
       id="path-effect198"
       is_visible="true"
       lpeversion="1.3"
       weight="33.333333"
       steps="2"
       helper_size="0"
       apply_no_weight="true"
       apply_with_weight="true"
       only_selected="false"
       uniform="false" />
    <inkscape:path-effect
       effect="bspline"
       id="path-effect199"
       is_visible="true"
       lpeversion="1.3"
       weight="33.333333"
       steps="2"
       helper_size="0"
       apply_no_weight="true"
       apply_with_weight="true"
       only_selected="false"
       uniform="false" />
    <inkscape:path-effect
       effect="bspline"
       id="path-effect200"
       is_visible="true"
       lpeversion="1.3"
       weight="33.333333"
       steps="2"
       helper_size="0"
       apply_no_weight="true"
       apply_with_weight="true"
       only_selected="false"
       uniform="false" />
    <inkscape:path-effect
       effect="bspline"
       id="path-effect201"
       is_visible="true"
       lpeversion="1.3"
       weight="33.333333"
       steps="2"
       helper_size="0"
       apply_no_weight="true"
       apply_with_weight="true"
       only_selected="false"
       uniform="false" />
    <inkscape:path-effect
       effect="bspline"
       id="path-effect202"
       is_visible="true"
       lpeversion="1.3"
       weight="33.333333"
       steps="2"
       helper_size="0"
       apply_no_weight="true"
       apply_with_weight="true"
       only_selected="false"
       uniform="false" />
    <inkscape:path-effect
       effect="bspline"
       id="path-effect203"
       is_visible="true"
       lpeversion="1.3"
       weight="33.333333"
       steps="2"
       helper_size="0"
       apply_no_weight="true"
       apply_with_weight="true"
       only_selected="false"
       uniform="false" />
    <inkscape:path-effect
       effect="bspline"
       id="path-effect204"
       is_visible="true"
       lpeversion="1.3"
       weight="33.333333"
       steps="2"
       helper_size="0"
       apply_no_weight="true"
       apply_with_weight="true"
       only_selected="false"
       uniform="false" />
    <inkscape:path-effect
       effect="bspline"
       id="path-effect179"
       is_visible="true"
       lpeversion="1.3"
       weight="33.333333"
       steps="2"
       helper_size="0"
       apply_no_weight="true"
       apply_with_weight="true"
       only_selected="false"
       uniform="false" />
    <inkscape:path-effect
       effect="bspline"
       id="path-effect7-5"
       is_visible="true"
       lpeversion="1.3"
       weight="33.333333"
       steps="2"
       helper_size="0"
       apply_no_weight="true"
       apply_with_weight="true"
       only_selected="false"
       uniform="false" />
    <inkscape:path-effect
       effect="bspline"
       id="path-effect3-1"
       is_visible="true"
       lpeversion="1.3"
       weight="33.333333"
       steps="2"
       helper_size="0"
       apply_no_weight="true"
       apply_with_weight="true"
       only_selected="false"
       uniform="false" />
    <inkscape:path-effect
       effect="bspline"
       id="path-effect4-7"
       is_visible="true"
       lpeversion="1.3"
       weight="33.333333"
       steps="2"
       helper_size="0"
       apply_no_weight="true"
       apply_with_weight="true"
       only_selected="false"
       uniform="false" />
    <inkscape:path-effect
       effect="bspline"
       id="path-effect5-1"
       is_visible="true"
       lpeversion="1.3"
       weight="33.333333"
       steps="2"
       helper_size="0"
       apply_no_weight="true"
       apply_with_weight="true"
       only_selected="false"
       uniform="false" />
    <inkscape:path-effect
       effect="bspline"
       id="path-effect6-1"
       is_visible="true"
       lpeversion="1.3"
       weight="33.333333"
       steps="2"
       helper_size="0"
       apply_no_weight="true"
       apply_with_weight="true"
       only_selected="false"
       uniform="false" />
    <inkscape:path-effect
       effect="bspline"
       id="path-effect8-5"
       is_visible="true"
       lpeversion="1.3"
       weight="33.333333"
       steps="2"
       helper_size="0"
       apply_no_weight="true"
       apply_with_weight="true"
       only_selected="false"
       uniform="false" />
  </defs>
  <g
     id="icon-chip-green-2"
     transform="matrix(1.4363445,0,0,1.4363445,0.48676427,0.87499156)">
    <g
       id="Сгруппировать_3443"
       data-name="Сгруппировать 3443">
      <path
         id="Контур_11696"
         data-name="Контур 11696"
         d="M 17.212,8.4 A 8.609,8.609 0 0 1 0,8.4 a 8.609,8.609 0 0 1 17.212,0 z"
         transform="translate(0,0.185)"
         fill="#009c3b"
         fill-rule="evenodd"
         style="display:inline;fill:#9c5000;fill-opacity:1" />
      <path
         id="Контур_11697"
         data-name="Контур 11697"
         d="M 16.739,5.4 A 8.127,8.127 0 0 0 14.766,2.432 8.757,8.757 0 0 0 10.461,0.186 9.17,9.17 0 0 0 6.754,0.192 8.7,8.7 0 0 0 1.936,3 7.962,7.962 0 0 0 0.268,6.124 7.742,7.742 0 0 0 0.5,10.877 a 8.071,8.071 0 0 0 1.964,2.964 8.735,8.735 0 0 0 4.29,2.252 9.171,9.171 0 0 0 3.707,0.006 8.7,8.7 0 0 0 4.834,-2.8 7.955,7.955 0 0 0 1.677,-3.128 A 7.747,7.747 0 0 0 16.739,5.4 Z M 13.56,11.959 A 6.445,6.445 0 0 1 9.98,14.033 6.8,6.8 0 0 1 7.236,14.027 6.47,6.47 0 0 1 4.063,12.358 5.973,5.973 0 0 1 2.61,10.166 5.734,5.734 0 0 1 2.438,6.65 5.9,5.9 0 0 1 3.671,4.34 6.44,6.44 0 0 1 7.235,2.258 6.807,6.807 0 0 1 9.979,2.252 a 6.479,6.479 0 0 1 3.187,1.662 5.986,5.986 0 0 1 1.462,2.2 5.742,5.742 0 0 1 0.172,3.529 5.9,5.9 0 0 1 -1.241,2.316 z"
         fill-rule="evenodd"
         fill="url(#linear-gradient)"
         style="fill:url(#linear-gradient)" />
      <path
         id="Контур_11698"
         data-name="Контур 11698"
         d="M 6.074,0 A 5.913,5.913 0 0 0 0,5.738 5.913,5.913 0 0 0 6.074,11.476 5.913,5.913 0 0 0 12.148,5.738 5.913,5.913 0 0 0 6.074,0 Z m 0,11 A 5.421,5.421 0 0 1 0.506,5.738 5.421,5.421 0 0 1 6.074,0.478 5.421,5.421 0 0 1 11.642,5.738 5.421,5.421 0 0 1 6.074,11 Z"
         transform="translate(2.547,2.405)"
         fill="#47d07a"
         fill-rule="evenodd"
         opacity="0.88"
         style="isolation:isolate;mix-blend-mode:multiply;fill:#ff7818;fill-opacity:1;stroke-width:0;stroke-dasharray:none" />
      <path
         id="Контур_11699"
         data-name="Контур 11699"
         d="M 3.707,0.186 3.44,1.332 a 1.062,1.062 0 0 1 -1.111,0.8 Q 2.1,2.117 1.867,2.117 1.634,2.117 1.4,2.132 A 1.056,1.056 0 0 1 0.271,1.355 L 0,0.192 A 9.17,9.17 0 0 1 3.707,0.186 Z"
         transform="translate(6.754)"
         fill="#075032"
         fill-rule="evenodd"
         style="display:inline;fill:#502c07;fill-opacity:1" />
      <path
         id="Контур_11700"
         data-name="Контур 11700"
         d="M 3.707,1.948 A 9.059,9.059 0 0 1 1.867,2.134 9.116,9.116 0 0 1 0,1.942 L 0.271,0.78 A 1.056,1.056 0 0 1 1.4,0 Q 1.634,0.016 1.872,0.016 2.11,0.016 2.329,0 A 1.062,1.062 0 0 1 3.44,0.8 Z"
         transform="translate(6.754,14.151)"
         fill="#075032"
         fill-rule="evenodd"
         style="fill:#982f0e;fill-opacity:1" />
      <path
         id="Контур_11701"
         data-name="Контур 11701"
         d="M 3.181,2.968 2,3.367 A 1.1,1.1 0 0 1 0.7,2.878 6,6 0 0 0 0.2,2.142 0.978,0.978 0 0 1 0.329,0.814 L 1.207,0 a 8.127,8.127 0 0 1 1.974,2.968 z"
         transform="translate(13.558,2.432)"
         fill="#075032"
         fill-rule="evenodd"
         style="fill:#643c09;fill-opacity:1" />
      <path
         id="Контур_11702"
         data-name="Контур 11702"
         d="M 2.844,2.6 1.964,3.416 A 8.071,8.071 0 0 1 0,0.458 l 1.186,-0.4 A 1.092,1.092 0 0 1 2.486,0.546 5.967,5.967 0 0 0 2.973,1.28 0.978,0.978 0 0 1 2.844,2.6 Z"
         transform="translate(0.499,10.42)"
         fill="#075032"
         fill-rule="evenodd"
         style="fill:#793b0b;fill-opacity:1" />
      <path
         id="Контур_11703"
         data-name="Контур 11703"
         d="M 3.035,0.325 A 7.955,7.955 0 0 1 1.358,3.452 L 0.4,2.716 A 0.978,0.978 0 0 1 0.149,1.41 5.877,5.877 0 0 0 0.567,0.634 1.092,1.092 0 0 1 1.824,0.034 Z"
         transform="translate(13.937,9.844)"
         fill="#075032"
         fill-rule="evenodd"
         style="fill:#813f0c;fill-opacity:1" />
      <path
         id="Контур_11704"
         data-name="Контур 11704"
         d="m 2.88,2.042 a 5.91,5.91 0 0 0 -0.415,0.773 1.086,1.086 0 0 1 -1.25,0.6 L 0,3.122 A 7.962,7.962 0 0 1 1.668,0 L 2.627,0.739 A 0.977,0.977 0 0 1 2.88,2.042 Z"
         transform="translate(0.268,3.002)"
         fill="#075032"
         fill-rule="evenodd"
         style="fill:#74420a;fill-opacity:1" />
      <path
         id="Контур_11705"
         data-name="Контур 11705"
         d="m 0,0 0.218,0.736 a 8.113,8.113 0 0 0 3.3,0 l 0.19,-0.73 A 8.974,8.974 0 0 1 0,0 Z"
         transform="translate(6.754,16.082)"
         fill="#002d1c"
         fill-rule="evenodd"
         style="fill:#6e2300;fill-opacity:1" />
      <path
         id="Контур_11706"
         data-name="Контур 11706"
         d="M 0.245,3.128 0,4 A 7.41,7.41 0 0 0 1.641,1.4 L 1.972,0 A 9.02,9.02 0 0 1 0.245,3.128 Z"
         transform="translate(15,10.168)"
         fill="#002d1c"
         fill-rule="evenodd"
         style="fill:#501d00;fill-opacity:1" />
      <path
         id="Контур_11707"
         data-name="Контур 11707"
         d="m 1.964,2.821 0.454,1.14 A 7.468,7.468 0 0 1 0.245,0.951 L 0,0 a 10.335,10.335 0 0 0 1.964,2.821 z"
         transform="translate(0.499,10.877)"
         fill="#002d1c"
         fill-rule="evenodd"
         style="fill:#4a1500;fill-opacity:1" />
      <ellipse
         id="Эллипс_10"
         data-name="Эллипс 10"
         cx="4.9850001"
         cy="4.7090001"
         rx="4.9850001"
         ry="4.7090001"
         transform="translate(3.621,3.434)"
         fill="#3de17b"
         style="fill:#e1723d;fill-opacity:1" />
      <g
         id="Сгруппировать_3442"
         data-name="Сгруппировать 3442"
         transform="translate(2.64,2.516)"
         style="display:inline;fill:#f1972d;fill-opacity:1">
        <path
           id="Контур_11708"
           data-name="Контур 11708"
           d="m 5.967,11.274 c -0.125,0 -0.251,0 -0.375,-0.011 l 0.018,-0.3 a 6.151,6.151 0 0 0 0.873,-0.011 l 0.025,0.3 c -0.178,0.014 -0.36,0.022 -0.541,0.022 z m -1.583,-0.2 a 6.156,6.156 0 0 1 -0.869,-0.3 l 0.117,-0.275 a 5.872,5.872 0 0 0 0.826,0.282 z M 7.71,11.03 7.627,10.743 a 5.844,5.844 0 0 0 0.818,-0.3 L 8.57,10.715 A 6.171,6.171 0 0 1 7.71,11.03 Z M 2.444,10.187 A 5.943,5.943 0 0 1 1.731,9.607 L 1.937,9.39 a 5.657,5.657 0 0 0 0.677,0.551 z m 7.18,-0.1 L 9.447,9.846 A 5.613,5.613 0 0 0 10.108,9.277 L 10.32,9.488 A 5.921,5.921 0 0 1 9.625,10.09 Z M 0.94,8.673 A 5.59,5.59 0 0 1 0.488,7.873 L 0.76,7.747 A 5.256,5.256 0 0 0 1.187,8.505 Z M 11.086,8.535 10.834,8.375 a 5.252,5.252 0 0 0 0.4,-0.77 l 0.275,0.116 A 5.538,5.538 0 0 1 11.086,8.535 Z M 0.107,6.707 A 5.371,5.371 0 0 1 0,5.792 L 0.3,5.783 A 5.106,5.106 0 0 0 0.4,6.646 Z M 11.859,6.544 11.564,6.493 A 5.1,5.1 0 0 0 11.638,5.627 V 5.6 h 0.3 v 0.02 a 5.4,5.4 0 0 1 -0.08,0.924 z M 0.395,4.629 0.1,4.57 A 5.393,5.393 0 0 1 0.358,3.686 L 0.637,3.794 A 5.106,5.106 0 0 0 0.395,4.629 Z M 11.5,4.454 A 5.126,5.126 0 0 0 11.228,3.628 l 0.275,-0.117 a 5.406,5.406 0 0 1 0.288,0.874 z M 1.174,2.767 0.926,2.6 A 5.759,5.759 0 0 1 1.5,1.881 l 0.218,0.2 A 5.443,5.443 0 0 0 1.174,2.767 Z M 10.657,2.62 A 5.464,5.464 0 0 0 10.092,1.957 l 0.211,-0.211 a 5.728,5.728 0 0 1 0.6,0.7 z M 2.6,1.326 2.429,1.081 A 6.054,6.054 0 0 1 3.215,0.614 L 3.347,0.882 A 5.772,5.772 0 0 0 2.6,1.326 Z m 6.594,-0.1 A 5.77,5.77 0 0 0 8.424,0.8 L 8.548,0.533 A 6.11,6.11 0 0 1 9.353,0.975 Z M 4.437,0.475 4.36,0.186 a 6.246,6.246 0 0 1 0.9,-0.168 l 0.033,0.3 A 6,6 0 0 0 4.437,0.475 Z M 7.322,0.432 A 6,6 0 0 0 6.459,0.3 L 6.483,0 A 6.281,6.281 0 0 1 7.39,0.141 Z"
           fill="#eee7f4"
           style="fill:#f1972d;fill-opacity:1" />
      </g>
      <path
         id="Контур_11709"
         data-name="Контур 11709"
         d="M 17.235,0 C 16.282,11.3 0.5,10.393 0,0.041 0.545,11.418 17.18,10.713 17.235,0 Z"
         transform="translate(0.003,7.926)"
         fill-rule="evenodd"
         opacity="0.5"
         fill="url(#radial-gradient)"
         style="display:inline;isolation:isolate;mix-blend-mode:screen;fill:url(#radial-gradient)" />
    </g>
  </g>
  <g
     id="g9"
     inkscape:label="CardSkull"
     transform="matrix(0.35910306,0.12083191,-0.12738961,0.37479936,1.8978843,-16.060093)"
     style="display:inline;stroke-width:9.75915">
    <path
       style="display:inline;fill:#f36e00;fill-opacity:0.60249603;stroke:#000000;stroke-width:0.263377;stroke-linecap:round;stroke-linejoin:round;stroke-dasharray:none;stroke-opacity:1"
       d="m 57.521302,64.886317 c 0.137763,-0.09537 0.413287,-0.286122 0.657024,-0.540456 0.243737,-0.254335 0.455675,-0.572244 0.376193,-1.070316 -0.07948,-0.498072 -0.450375,-1.176276 -0.625226,-1.605461 -0.174852,-0.429186 -0.153655,-0.609337 0.04769,-0.821281 0.20135,-0.211944 0.58284,-0.455675 0.879562,-0.725905 0.296722,-0.27023 0.508662,-0.566945 0.694113,-0.953746 0.185452,-0.386801 0.344405,-0.863662 0.381494,-1.282253 0.03709,-0.41859 -0.04769,-0.778886 -0.211945,-1.038518 -0.164258,-0.259631 -0.407987,-0.418585 -0.598737,-0.498063 -0.19075,-0.07948 -0.32851,-0.07948 -0.44508,-0.127167 -0.116569,-0.04769 -0.211943,-0.143061 -0.233135,-0.238438 -0.02119,-0.09538 0.03179,-0.190746 0.100674,-0.280823 0.06888,-0.09008 0.153657,-0.174852 0.04768,-0.641134 -0.105974,-0.466282 -0.402689,-1.314039 -0.736503,-2.098235 -0.333814,-0.784196 -0.704706,-1.504786 -1.340544,-2.188308 -0.635837,-0.683522 -1.536578,-1.329935 -2.421447,-1.796212 -0.88487,-0.466277 -1.753819,-0.752395 -2.813545,-0.815976 -1.059727,-0.06358 -2.310166,0.09537 -3.36459,0.376201 -1.054425,0.280828 -1.912775,0.683511 -2.643984,1.245167 -0.73121,0.561656 -1.335235,1.282248 -1.828007,2.103536 -0.492771,0.821288 -0.874261,1.743221 -1.128594,2.643987 -0.254333,0.900766 -0.381496,1.780312 -0.339105,2.665182 0.04239,0.88487 0.25433,1.775013 0.476873,2.432039 0.222542,0.657027 0.455674,1.080905 0.736501,1.186875 0.280828,0.10597 0.609334,-0.105969 0.715304,-0.503369 0.10597,-0.397399 -0.0106,-0.980231 -0.06358,-1.536586 -0.05299,-0.556355 -0.04239,-1.086202 -0.105974,-1.176274 -0.06358,-0.09007 -0.201346,0.259628 -0.264929,0.03708 -0.06358,-0.222547 -0.05299,-1.017319 0.05299,-1.732632 0.105974,-0.715313 0.307316,-1.351129 0.508663,-1.849198 0.201348,-0.498069 0.402689,-0.858366 0.50866,-0.831869 0.105971,0.0265 0.116567,0.439778 0.137761,0.895459 0.02119,0.455681 0.05298,0.953738 0.148358,1.086201 0.09537,0.132462 0.254329,-0.10067 0.418586,-0.249031 0.164257,-0.148361 0.333809,-0.211943 0.355002,-0.116567 0.02119,0.09538 -0.105971,0.349703 -0.249034,0.609336 -0.143063,0.259632 -0.302018,0.524557 -0.44508,1.043824 -0.143063,0.519268 -0.270225,1.292844 -0.254328,2.013457 0.0159,0.720612 0.174851,1.388219 0.148355,1.822704 -0.02649,0.434486 -0.238431,0.635826 -0.450377,0.980238 -0.211945,0.344412 -0.423884,0.831872 -0.561648,1.229268 -0.137763,0.397396 -0.201345,0.704708 0.0371,1.065015 0.238442,0.360306 0.778884,0.773586 1.329942,1.086205 0.551059,0.312618 1.112695,0.524556 1.737933,0.572242 0.625238,0.04769 1.314039,-0.06888 1.653149,0.06889 0.339109,0.137767 0.328513,0.529853 0.545759,1.059717 0.217246,0.529864 0.662317,1.19747 1.144491,1.499488 0.482175,0.302019 1.001425,0.238437 1.24516,0.116568 0.243735,-0.121869 0.211946,-0.302018 0.105973,-0.731209 -0.105972,-0.429191 -0.28612,-1.107395 -0.376195,-1.504788 -0.09008,-0.397394 -0.09008,-0.513959 0.03179,-0.566946 0.121869,-0.05299 0.365599,-0.04239 0.498063,0.06358 0.132464,0.105973 0.153657,0.307316 0.280825,0.672923 0.127168,0.365606 0.3603,0.895452 0.561649,1.165679 0.201348,0.270227 0.370898,0.280823 0.582844,0.238433 0.211946,-0.04239 0.466271,-0.137762 0.614631,-0.296721 0.14836,-0.158959 0.190748,-0.381495 0.137761,-0.688817 -0.05299,-0.307321 -0.201343,-0.699407 -0.259628,-0.985531 -0.05828,-0.286124 -0.02649,-0.466274 0.06358,-0.540453 0.09008,-0.07418 0.238434,-0.04239 0.434483,0.211947 0.19605,0.254336 0.439779,0.731197 0.641127,1.012023 0.201348,0.280825 0.360302,0.3656 0.582844,0.317911 0.222542,-0.04769 0.50866,-0.227837 0.694111,-0.429185 0.185451,-0.201348 0.270226,-0.423883 0.302017,-0.752399 0.03179,-0.328516 0.0106,-0.762991 -0.07948,-1.075609 -0.09008,-0.312617 -0.249031,-0.503363 -0.312615,-0.667618 -0.06358,-0.164256 -0.03179,-0.302017 0.100673,-0.333808 0.132467,-0.03179 0.365599,0.04239 0.572245,0.185452 0.206646,0.143063 0.386793,0.355001 0.503363,0.646426 0.116569,0.291425 0.169554,0.662318 0.196046,0.847769 0.02649,0.18545 0.0265,0.185456 0.164264,0.09008 z"
       id="path7"
       inkscape:path-effect="#path-effect7"
       inkscape:original-d="m 57.383539,64.981692 c 0.275527,-0.190748 0.55105,-0.381497 0.826577,-0.572246 0.211947,-0.31792 0.423886,-0.635828 0.635828,-0.953743 -0.370906,-0.678231 -0.741799,-1.356434 -1.1127,-2.034651 0.02119,-0.180155 0.04239,-0.360305 0.06359,-0.540454 0.381502,-0.24374 0.762992,-0.487471 1.144489,-0.731205 0.211948,-0.296725 0.423887,-0.59344 0.635831,-0.890159 0.158959,-0.476883 0.317913,-0.953744 0.476869,-1.430616 -0.08478,-0.360309 -0.169553,-0.720605 -0.25433,-1.080907 -0.24374,-0.158962 -0.487469,-0.317915 -0.731203,-0.476872 -0.137766,0 -0.275526,0 -0.41329,0 -0.09537,-0.09538 -0.190748,-0.190749 -0.286123,-0.286123 0.05299,-0.09538 0.105974,-0.190749 0.158959,-0.286123 0.08478,-0.08478 0.169553,-0.169556 0.254331,-0.254331 -0.296725,-0.847788 -0.593439,-1.695545 -0.890159,-2.543315 -0.370909,-0.720622 -0.741802,-1.441212 -1.112702,-2.161818 -0.900774,-0.646438 -1.801514,-1.292852 -2.702272,-1.939276 -0.868982,-0.286129 -1.737931,-0.572247 -2.606897,-0.85837 -1.250487,0.158959 -2.500926,0.317913 -3.75139,0.476872 -0.858385,0.402699 -1.716735,0.805381 -2.575105,1.208074 -0.604049,0.72062 -1.208074,1.441212 -1.812112,2.161818 -0.381506,0.92197 -0.762995,1.843903 -1.144492,2.765854 -0.127167,0.879581 -0.254331,1.759127 -0.381498,2.638689 0.211947,0.890178 0.423886,1.780321 0.635831,2.67048 0.23314,0.423894 0.466272,0.847772 0.69941,1.271659 0.328517,-0.211948 0.657024,-0.423887 0.985536,-0.635829 -0.116573,-0.582856 -0.233138,-1.165688 -0.349708,-1.74853 0.01061,-0.529868 0.02119,-1.059715 0.03179,-1.589572 -0.137766,0.349713 -0.275527,0.699413 -0.41329,1.049118 0.01061,-0.7948 0.02119,-1.589572 0.03179,-2.384356 0.201351,-0.635842 0.402691,-1.271659 0.604039,-1.907487 0.201347,-0.36031 0.40269,-0.720606 0.604035,-1.080908 0.01061,0.413295 0.02119,0.826577 0.03179,1.239864 0.03179,0.498075 0.06358,0.996132 0.09537,1.494197 0.158959,-0.23314 0.317913,-0.466272 0.476872,-0.69941 0.169558,-0.06358 0.339108,-0.127167 0.508661,-0.190749 -0.127166,0.254336 -0.25433,0.508662 -0.381497,0.762995 -0.158959,0.264933 -0.317913,0.529858 -0.476872,0.794785 -0.127167,0.773607 -0.254331,1.547183 -0.381495,2.320774 0.158959,0.667634 0.317913,1.335241 0.476869,2.002861 -0.211947,0.201351 -0.423883,0.402691 -0.635828,0.604039 -0.211947,0.487476 -0.423886,0.974936 -0.635828,1.462405 -0.06358,0.307324 -0.127167,0.614635 -0.190749,0.921951 0.540465,0.413298 1.080908,0.826577 1.621364,1.239867 0.561661,0.211947 1.123297,0.423886 1.684946,0.635828 0.688827,-0.11657 1.377628,-0.233138 2.066444,-0.349705 -0.01061,0.392102 -0.02119,0.784188 -0.03179,1.176282 0.44509,0.667633 0.890158,1.335241 1.335241,2.002861 0.519268,-0.06358 1.038518,-0.127167 1.557779,-0.190749 -0.03179,-0.180155 -0.06358,-0.360304 -0.09537,-0.540453 -0.180155,-0.678233 -0.360302,-1.356437 -0.540454,-2.034654 0,-0.11657 0,-0.233135 0,-0.349705 0.243739,0.01058 0.487468,0.02119 0.731202,0.03179 0.02119,0.201348 0.04239,0.402691 0.06358,0.604036 0.233143,0.529868 0.466275,1.059714 0.699413,1.589571 0.169558,0.01061 0.339109,0.02119 0.508661,0.03179 0.254339,-0.09538 0.508665,-0.190749 0.762995,-0.286123 0.04239,-0.222544 0.08478,-0.44508 0.127167,-0.667621 -0.148362,-0.392102 -0.29672,-0.784188 -0.445079,-1.176282 0.03179,-0.180154 0.06358,-0.360304 0.09537,-0.540453 0.148362,0.03179 0.29672,0.06358 0.445079,0.09537 0.24374,0.476883 0.487469,0.953744 0.731203,1.430616 0.158962,0.08478 0.317915,0.169555 0.476872,0.25433 0.286128,-0.180154 0.572246,-0.360301 0.858369,-0.540453 0.08478,-0.222544 0.169553,-0.44508 0.254331,-0.667621 -0.02119,-0.434491 -0.04239,-0.868966 -0.06358,-1.303449 -0.158961,-0.190751 -0.317915,-0.381497 -0.476871,-0.572246 0.03179,-0.137763 0.06358,-0.275524 0.09537,-0.413287 0.233143,0.07418 0.466275,0.14836 0.69941,0.222539 0.180158,0.211947 0.360305,0.423886 0.540457,0.63583 0.05298,0.370907 0.105971,0.741799 0.158956,1.1127 z" />
    <path
       style="display:inline;fill:#772e00;fill-opacity:1;stroke:none;stroke-width:0.263377;stroke-linecap:round;stroke-linejoin:round;stroke-dasharray:none;stroke-opacity:1"
       d="m 46.80229,56.737113 c -0.217242,0.14836 -0.651724,0.44508 -0.93255,0.853076 -0.280825,0.407996 -0.407989,0.927246 -0.434481,1.584277 -0.02649,0.65703 0.04769,1.451798 0.291424,2.082334 0.243739,0.630535 0.657018,1.096799 1.038519,1.31404 0.381502,0.217241 0.731201,0.185448 1.20278,0.02649 0.47158,-0.158961 1.065008,-0.445078 1.504792,-0.768295 0.439784,-0.323216 0.725902,-0.683512 0.863665,-1.144493 0.137763,-0.460981 0.127167,-1.02262 0.0106,-1.568377 -0.11657,-0.545757 -0.339106,-1.075604 -0.604038,-1.478299 -0.264932,-0.402695 -0.572242,-0.678216 -0.900757,-0.868965 -0.328515,-0.19075 -0.678215,-0.296719 -0.985534,-0.312614 -0.307319,-0.01589 -0.572244,0.05828 -0.704708,0.09537 -0.132463,0.03709 -0.132466,0.0371 -0.349708,0.185456 z"
       id="path3"
       inkscape:path-effect="#path-effect3"
       inkscape:original-d="m 47.019532,56.588752 c -0.434483,0.296722 -0.868966,0.593442 -1.303448,0.890161 -0.12717,0.519272 -0.254334,1.038522 -0.381498,1.55778 0.07418,0.794803 0.14836,1.589571 0.222539,2.384359 0.413297,0.466283 0.826576,0.932547 1.239866,1.398823 0.349713,-0.03179 0.699413,-0.06358 1.049118,-0.09538 0.593453,-0.286128 1.186881,-0.572246 1.78032,-0.858369 0.286129,-0.36031 0.572247,-0.720606 0.85837,-1.080908 -0.01061,-0.56166 -0.02119,-1.123299 -0.03179,-1.684946 -0.222543,-0.529867 -0.445079,-1.059714 -0.66762,-1.589571 -0.307324,-0.275532 -0.614635,-0.551053 -0.921951,-0.82658 -0.349713,-0.105973 -0.699413,-0.211942 -1.049118,-0.317913 -0.264933,0.07418 -0.529858,0.14836 -0.794785,0.222539 z" />
    <path
       style="display:inline;fill:#763900;fill-opacity:1;stroke:none;stroke-width:0.263377;stroke-linecap:round;stroke-linejoin:round;stroke-dasharray:none;stroke-opacity:1"
       d="m 52.686354,54.665371 c -0.103322,0.127167 -0.309966,0.381498 -0.437132,0.646429 -0.127166,0.264931 -0.174852,0.540451 -0.203995,0.908707 -0.02914,0.368255 -0.03974,0.829223 0.03709,1.234568 0.07683,0.405344 0.241082,0.755041 0.521911,1.110049 0.280829,0.355008 0.678213,0.715304 1.030571,0.959039 0.352358,0.243736 0.659668,0.370899 0.985535,0.386794 0.325867,0.0159 0.670266,-0.07948 1.027923,-0.188098 0.357657,-0.108622 0.72855,-0.230487 1.049117,-0.463629 0.320567,-0.233141 0.590789,-0.577541 0.670266,-1.070315 0.07948,-0.492773 -0.03179,-1.133888 -0.166905,-1.690243 -0.135116,-0.556355 -0.294069,-1.027918 -0.508664,-1.406768 -0.214596,-0.378851 -0.484817,-0.664967 -0.789488,-0.845119 -0.304672,-0.180152 -0.643775,-0.254332 -0.993484,-0.288772 -0.34971,-0.03444 -0.710006,-0.02914 -1.065014,0.07418 -0.355008,0.103325 -0.704706,0.304666 -0.879558,0.405339 -0.174853,0.100672 -0.174853,0.100668 -0.278176,0.227834 z"
       id="path4"
       inkscape:path-effect="#path-effect4"
       inkscape:original-d="m 52.789677,54.538205 c -0.206645,0.254333 -0.41329,0.508664 -0.619932,0.762994 -0.04769,0.275532 -0.09537,0.551053 -0.143063,0.826577 -0.01061,0.460986 -0.02119,0.921954 -0.03179,1.38293 0.164259,0.349713 0.328509,0.69941 0.492765,1.049115 0.397402,0.360312 0.794788,0.720606 1.192181,1.08091 0.307322,0.127167 0.614632,0.254331 0.921951,0.381498 0.344414,-0.09538 0.688814,-0.190749 1.033222,-0.286123 0.370906,-0.12187 0.741799,-0.243735 1.1127,-0.365602 0.270232,-0.344416 0.540454,-0.688816 0.810681,-1.033221 -0.111274,-0.641141 -0.222541,-1.282256 -0.333809,-1.923384 -0.158962,-0.471582 -0.317916,-0.943144 -0.476872,-1.414719 -0.270232,-0.286128 -0.540454,-0.572243 -0.810683,-0.858366 -0.339114,-0.07418 -0.678217,-0.14836 -1.017326,-0.222541 -0.36031,0.0053 -0.720606,0.01061 -1.080908,0.0159 -0.349713,0.201351 -0.699412,0.402691 -1.049117,0.604036 z" />
    <path
       style="display:inline;fill:#472500;fill-opacity:1;stroke:none;stroke-width:0.263377;stroke-linecap:round;stroke-linejoin:round;stroke-dasharray:none;stroke-opacity:1"
       d="m 54.00305,52.084966 c 0.03179,0.153658 0.70471,0.55635 1.44122,1.229279 0.73651,0.672928 1.536579,1.616056 1.790907,1.698176 0.254328,0.08212 -0.03709,-0.696755 -0.468927,-1.321991 -0.43184,-0.625237 -1.004075,-1.096801 -1.594872,-1.380276 -0.590796,-0.283474 -1.20012,-0.378847 -1.168328,-0.225188 z"
       id="path5"
       inkscape:path-effect="#path-effect5"
       inkscape:original-d="m 53.361923,51.835933 c 0.672917,0.402693 1.345837,0.805384 2.018755,1.208074 0.800102,0.943166 1.600171,1.886294 2.400255,2.829439 -0.291428,-0.778905 -0.582843,-1.55778 -0.874266,-2.336671 -0.572256,-0.471583 -1.144492,-0.943147 -1.716738,-1.414719 -0.609346,-0.09538 -1.218671,-0.190749 -1.828006,-0.286123 z" />
    <path
       style="display:inline;fill:#673300;fill-opacity:1;stroke:none;stroke-width:0.263377;stroke-linecap:round;stroke-linejoin:round;stroke-dasharray:none;stroke-opacity:1"
       d="m 51.482807,59.227146 c -0.06369,0.284746 -0.19108,0.854238 -0.258521,1.517403 -0.06744,0.663165 -0.07494,1.419974 -0.04871,1.93327 0.02623,0.513295 0.08617,0.783048 0.161105,0.985368 0.07493,0.20232 0.164852,0.337197 0.310973,0.367171 0.146121,0.02997 0.348439,-0.04496 0.449599,-0.14612 0.101159,-0.101161 0.101159,-0.228545 0.172347,-0.404639 0.07119,-0.176095 0.213558,-0.400892 0.284745,-0.636932 0.07119,-0.236041 0.07119,-0.483316 0.0037,-0.771812 -0.06744,-0.288496 -0.202319,-0.618195 -0.247278,-0.86173 -0.04496,-0.243535 0,-0.400891 0.116149,-0.325955 0.116148,0.07494 0.303477,0.382156 0.457091,0.659411 0.153614,0.277256 0.273504,0.52453 0.445852,0.68189 0.172348,0.157361 0.397143,0.224799 0.614452,0.254771 0.217309,0.02997 0.427116,0.02248 0.524529,-0.0712 0.09741,-0.09367 0.08243,-0.273506 -0.0075,-0.502054 -0.08992,-0.228549 -0.254771,-0.505797 -0.457093,-0.786799 -0.202322,-0.281002 -0.442102,-0.565741 -0.67065,-0.81677 -0.228548,-0.251029 -0.445849,-0.46833 -0.633183,-0.693132 -0.187335,-0.224802 -0.344691,-0.457089 -0.479572,-0.606956 -0.134881,-0.149867 -0.247278,-0.217306 -0.355934,-0.213557 -0.108657,0.0037 -0.213557,0.07868 -0.26601,0.116145 -0.05245,0.03747 -0.05245,0.03748 -0.116139,0.322223 z"
       id="path6"
       inkscape:path-effect="#path-effect6"
       inkscape:original-d="m 51.5465,58.942401 c -0.127386,0.569491 -0.254773,1.138983 -0.382159,1.708475 -0.0075,0.756838 -0.01497,1.513647 -0.02249,2.270472 0.05995,0.269766 0.119893,0.539519 0.17984,0.809278 0.08992,0.134882 0.179839,0.269758 0.269761,0.40464 0.202321,-0.07493 0.404638,-0.149868 0.606957,-0.2248 0,-0.127389 0,-0.254773 0,-0.382159 0.142375,-0.224803 0.284747,-0.449599 0.427119,-0.674399 0,-0.247282 0,-0.494557 0,-0.741836 -0.134882,-0.329713 -0.269758,-0.659413 -0.40464,-0.989119 0.04496,-0.157363 0.08992,-0.314719 0.134882,-0.472077 0.187335,0.307231 0.374665,0.61445 0.561998,0.921676 0.119894,0.247285 0.239784,0.494559 0.359678,0.741839 0.224803,0.06744 0.449598,0.134879 0.674399,0.202319 0.209817,-0.0075 0.419624,-0.01498 0.629438,-0.02249 -0.015,-0.179843 -0.02997,-0.35968 -0.04496,-0.53952 -0.164856,-0.277257 -0.329705,-0.554506 -0.494559,-0.831757 -0.239789,-0.284753 -0.47957,-0.569492 -0.719357,-0.854237 -0.21731,-0.217312 -0.434612,-0.434612 -0.651917,-0.65192 -0.157364,-0.232296 -0.314719,-0.464584 -0.47208,-0.696878 -0.112401,-0.06744 -0.224798,-0.134879 -0.337199,-0.202319 -0.10491,0.07494 -0.209812,0.149866 -0.314719,0.224801 z" />
    <path
       style="display:inline;fill:#f07500;fill-opacity:0.57932299;stroke:#000000;stroke-width:0.263377;stroke-linecap:round;stroke-linejoin:round;stroke-dasharray:none;stroke-opacity:1"
       d="m 50.601366,69.819288 c 0.243734,0.291421 0.731202,0.874265 1.382936,1.287557 0.651733,0.413291 1.467695,0.65702 2.42145,0.678212 0.953754,0.02119 2.045239,-0.18015 2.845328,-0.561654 0.800089,-0.381503 1.308741,-0.943138 1.642553,-1.642559 0.333813,-0.699421 0.492767,-1.536578 0.529856,-2.320774 0.03709,-0.784196 -0.04769,-1.515383 -0.27023,-1.674336 -0.222545,-0.158954 -0.58284,0.254326 -0.789485,0.70471 -0.206644,0.450383 -0.259628,0.937841 -0.296718,1.319341 -0.03709,0.3815 -0.05828,0.657022 -0.153658,0.704708 -0.09538,0.04769 -0.264929,-0.132464 -0.423887,-0.386799 -0.158958,-0.254335 -0.307314,-0.582839 -0.715311,-0.540446 -0.407997,0.04239 -1.075603,0.455673 -1.38292,0.731201 -0.307317,0.275528 -0.254333,0.413287 -0.164256,0.657024 0.09008,0.243737 0.21724,0.593437 0.13246,0.678212 -0.08478,0.08478 -0.381494,-0.09537 -0.614633,-0.286123 -0.233139,-0.190751 -0.402689,-0.392091 -0.683518,-0.413285 -0.280829,-0.02119 -0.672915,0.137761 -0.805378,0.402693 -0.132462,0.264932 -0.0053,0.635826 -0.03179,0.932548 -0.0265,0.296722 -0.206643,0.519258 -0.434484,0.42388 -0.22784,-0.09538 -0.503362,-0.50866 -0.916655,-0.725902 -0.413294,-0.217242 -0.964337,-0.238438 -1.239862,-0.249037 -0.275525,-0.0106 -0.275528,-0.01059 -0.03179,0.280829 z"
       id="path8"
       inkscape:path-effect="#path-effect8"
       inkscape:original-d="m 50.357632,69.527866 c 0.487468,0.582843 0.974937,1.165686 1.462405,1.748531 0.815999,0.243737 1.63196,0.487468 2.447941,0.731202 1.091528,-0.20135 2.183013,-0.402693 3.274517,-0.604038 0.508675,-0.56166 1.017326,-1.123296 1.52599,-1.684946 0.158959,-0.837192 0.317915,-1.674349 0.476872,-2.511523 -0.08478,-0.731218 -0.169556,-1.462405 -0.254331,-2.19361 -0.360312,0.413298 -0.720606,0.826579 -1.08091,1.239867 -0.05299,0.487478 -0.105971,0.974936 -0.158956,1.462407 -0.02119,0.275529 -0.04239,0.551051 -0.06358,0.826577 -0.169558,-0.180155 -0.339111,-0.360304 -0.508664,-0.540454 -0.148362,-0.32852 -0.296719,-0.657024 -0.445079,-0.985536 -0.667634,0.413298 -1.335241,0.826577 -2.002861,1.239867 0.05299,0.137766 0.10597,0.275526 0.158956,0.413287 0.127169,0.349713 0.254333,0.699413 0.381497,1.049118 -0.296725,-0.180155 -0.593439,-0.360302 -0.890159,-0.540454 -0.169558,-0.20135 -0.339108,-0.40269 -0.508664,-0.604038 -0.392102,0.158961 -0.784188,0.317915 -1.176282,0.476872 0.127167,0.370908 0.254331,0.741801 0.381498,1.112699 -0.180155,0.222547 -0.360304,0.445082 -0.540454,0.667621 -0.275532,-0.413295 -0.551053,-0.826577 -0.826579,-1.239864 -0.551061,-0.02119 -1.102104,-0.04239 -1.653154,-0.06359 z" />
  </g>
</svg>
